<svg width="60" height="54" viewBox="0 0 60 54" fill="none" xmlns="http://www.w3.org/2000/svg">
<path d="M47.5781 0.390625H33.5156C26.7315 0.390625 21.2109 5.91121 21.2109 12.6953C21.2109 18.8837 25.8029 24.0198 31.7578 24.8747V30.2734C31.7578 30.9841 32.1852 31.6261 32.8427 31.8973C33.4911 32.1679 34.2517 32.0228 34.7585 31.5162L41.2747 25H47.5781C54.3622 25 60 19.4794 60 12.6953C60 5.91121 54.3622 0.390625 47.5781 0.390625ZM33.5156 14.4529C32.5446 14.4529 31.7578 13.6659 31.7578 12.6951C31.7578 11.7243 32.5446 10.9373 33.5156 10.9373C34.4864 10.9373 35.2734 11.7243 35.2734 12.6951C35.2734 13.6659 34.4864 14.4529 33.5156 14.4529ZM40.5469 14.4529C39.5759 14.4529 38.7891 13.6659 38.7891 12.6951C38.7891 11.7243 39.5759 10.9373 40.5469 10.9373C41.5177 10.9373 42.3047 11.7243 42.3047 12.6951C42.3047 13.6659 41.5177 14.4529 40.5469 14.4529ZM47.5781 14.4529C46.6071 14.4529 45.8203 13.6659 45.8203 12.6951C45.8203 11.7243 46.6071 10.9373 47.5781 10.9373C48.5489 10.9373 49.3359 11.7243 49.3359 12.6951C49.3359 13.6659 48.5489 14.4529 47.5781 14.4529Z" fill="#0C59A6"/>
<path d="M39.4922 53.125C42.4001 53.125 44.7656 50.7595 44.7656 47.8516V40.8203C44.7656 40.0633 44.2815 39.392 43.564 39.1534L33.0418 35.6378C32.5268 35.4645 31.9638 35.5434 31.5107 35.8421L27.0371 38.8238C22.2993 36.5648 16.6774 30.9428 14.4183 26.2049L17.4 21.7314C17.7004 21.2799 17.7759 20.7152 17.6043 20.2002L14.0886 9.67806C13.8502 8.96066 13.1789 8.47656 12.4219 8.47656H5.27344C2.36555 8.47656 0 10.8174 0 13.7253C0 33.9779 19.2396 53.125 39.4922 53.125Z" fill="#0C59A6"/>
</svg>
